<svg id="Livello_1" data-name="Livello 1" xmlns="http://www.w3.org/2000/svg" viewBox="0 0 1888.25 112.15"><defs><style>.cls-1{fill:#010101;}.cls-2{fill:#848484;opacity:0.5;isolation:isolate;}</style></defs><g id="Layer_2" data-name="Layer 2"><circle class="cls-1" cx="56.08" cy="56.08" r="56.08"/><circle class="cls-2" cx="56.08" cy="56.08" r="11.22"/><circle class="cls-2" cx="56.08" cy="56.08" r="22.43"/><circle class="cls-2" cx="56.08" cy="56.08" r="33.65"/><circle class="cls-2" cx="56.08" cy="56.08" r="44.86"/><circle class="cls-2" cx="56.08" cy="56.08" r="56.08"/></g><g id="Layer_2-2" data-name="Layer 2"><circle class="cls-1" cx="182.94" cy="56.08" r="56.08"/><circle class="cls-2" cx="182.94" cy="56.08" r="11.22"/><circle class="cls-2" cx="182.94" cy="56.08" r="22.43"/><circle class="cls-2" cx="182.94" cy="56.08" r="33.65"/><circle class="cls-2" cx="182.94" cy="56.08" r="44.86"/><circle class="cls-2" cx="182.94" cy="56.08" r="56.08"/></g><g id="Layer_2-3" data-name="Layer 2"><circle class="cls-1" cx="309.8" cy="56.08" r="56.08"/><circle class="cls-2" cx="309.8" cy="56.08" r="11.22"/><circle class="cls-2" cx="309.8" cy="56.08" r="22.43"/><circle class="cls-2" cx="309.8" cy="56.08" r="33.65"/><circle class="cls-2" cx="309.8" cy="56.08" r="44.86"/><circle class="cls-2" cx="309.8" cy="56.08" r="56.08"/></g><g id="Layer_2-4" data-name="Layer 2"><circle class="cls-1" cx="436.67" cy="56.08" r="56.08"/><circle class="cls-2" cx="436.67" cy="56.08" r="11.22"/><circle class="cls-2" cx="436.67" cy="56.08" r="22.43"/><circle class="cls-2" cx="436.67" cy="56.08" r="33.65"/><circle class="cls-2" cx="436.67" cy="56.08" r="44.86"/><circle class="cls-2" cx="436.67" cy="56.08" r="56.08"/></g><g id="Layer_2-5" data-name="Layer 2"><circle class="cls-1" cx="563.53" cy="56.08" r="56.08"/><circle class="cls-2" cx="563.53" cy="56.08" r="11.22"/><circle class="cls-2" cx="563.53" cy="56.08" r="22.43"/><circle class="cls-2" cx="563.53" cy="56.08" r="33.65"/><circle class="cls-2" cx="563.53" cy="56.08" r="44.86"/><circle class="cls-2" cx="563.53" cy="56.08" r="56.08"/></g><g id="Layer_2-6" data-name="Layer 2"><circle class="cls-1" cx="690.4" cy="56.08" r="56.08"/><circle class="cls-2" cx="690.4" cy="56.08" r="11.22"/><circle class="cls-2" cx="690.4" cy="56.08" r="22.43"/><circle class="cls-2" cx="690.4" cy="56.08" r="33.65"/><circle class="cls-2" cx="690.4" cy="56.08" r="44.86"/><circle class="cls-2" cx="690.4" cy="56.08" r="56.08"/></g><g id="Layer_2-7" data-name="Layer 2"><circle class="cls-1" cx="817.26" cy="56.08" r="56.08"/><circle class="cls-2" cx="817.26" cy="56.08" r="11.22"/><circle class="cls-2" cx="817.26" cy="56.08" r="22.43"/><circle class="cls-2" cx="817.26" cy="56.08" r="33.65"/><circle class="cls-2" cx="817.26" cy="56.08" r="44.86"/><circle class="cls-2" cx="817.26" cy="56.08" r="56.08"/></g><g id="Layer_2-8" data-name="Layer 2"><circle class="cls-1" cx="944.13" cy="56.08" r="56.08"/><circle class="cls-2" cx="944.13" cy="56.08" r="11.22"/><circle class="cls-2" cx="944.13" cy="56.08" r="22.43"/><circle class="cls-2" cx="944.13" cy="56.08" r="33.65"/><circle class="cls-2" cx="944.13" cy="56.08" r="44.86"/><circle class="cls-2" cx="944.13" cy="56.08" r="56.08"/></g><g id="Layer_2-9" data-name="Layer 2"><circle class="cls-1" cx="1070.99" cy="56.08" r="56.08"/><circle class="cls-2" cx="1070.99" cy="56.08" r="11.22"/><circle class="cls-2" cx="1070.99" cy="56.08" r="22.43"/><circle class="cls-2" cx="1070.99" cy="56.08" r="33.65"/><circle class="cls-2" cx="1070.99" cy="56.08" r="44.86"/><circle class="cls-2" cx="1070.99" cy="56.08" r="56.08"/></g><g id="Layer_2-10" data-name="Layer 2"><circle class="cls-1" cx="1197.85" cy="56.08" r="56.08"/><circle class="cls-2" cx="1197.85" cy="56.08" r="11.22"/><circle class="cls-2" cx="1197.85" cy="56.08" r="22.43"/><circle class="cls-2" cx="1197.85" cy="56.08" r="33.65"/><circle class="cls-2" cx="1197.85" cy="56.08" r="44.86"/><circle class="cls-2" cx="1197.85" cy="56.08" r="56.08"/></g><g id="Layer_2-11" data-name="Layer 2"><circle class="cls-1" cx="1324.72" cy="56.08" r="56.08"/><circle class="cls-2" cx="1324.72" cy="56.08" r="11.22"/><circle class="cls-2" cx="1324.72" cy="56.08" r="22.43"/><circle class="cls-2" cx="1324.72" cy="56.08" r="33.65"/><circle class="cls-2" cx="1324.72" cy="56.08" r="44.86"/><circle class="cls-2" cx="1324.72" cy="56.08" r="56.08"/></g><g id="Layer_2-12" data-name="Layer 2"><circle class="cls-1" cx="1451.58" cy="56.08" r="56.08"/><circle class="cls-2" cx="1451.58" cy="56.08" r="11.22"/><circle class="cls-2" cx="1451.58" cy="56.08" r="22.43"/><circle class="cls-2" cx="1451.58" cy="56.08" r="33.65"/><circle class="cls-2" cx="1451.58" cy="56.08" r="44.86"/><circle class="cls-2" cx="1451.58" cy="56.08" r="56.08"/></g><g id="Layer_2-13" data-name="Layer 2"><circle class="cls-1" cx="1578.45" cy="56.08" r="56.08"/><circle class="cls-2" cx="1578.45" cy="56.08" r="11.22"/><circle class="cls-2" cx="1578.45" cy="56.08" r="22.43"/><circle class="cls-2" cx="1578.45" cy="56.08" r="33.65"/><circle class="cls-2" cx="1578.45" cy="56.08" r="44.86"/><circle class="cls-2" cx="1578.45" cy="56.08" r="56.08"/></g><g id="Layer_2-14" data-name="Layer 2"><circle class="cls-1" cx="1705.31" cy="56.08" r="56.08"/><circle class="cls-2" cx="1705.31" cy="56.08" r="11.22"/><circle class="cls-2" cx="1705.31" cy="56.08" r="22.43"/><circle class="cls-2" cx="1705.31" cy="56.08" r="33.65"/><circle class="cls-2" cx="1705.31" cy="56.08" r="44.86"/><circle class="cls-2" cx="1705.31" cy="56.08" r="56.08"/></g><g id="Layer_2-15" data-name="Layer 2"><circle class="cls-1" cx="1832.18" cy="56.08" r="56.08"/><circle class="cls-2" cx="1832.18" cy="56.08" r="11.22"/><circle class="cls-2" cx="1832.18" cy="56.08" r="22.43"/><circle class="cls-2" cx="1832.18" cy="56.08" r="33.65"/><circle class="cls-2" cx="1832.18" cy="56.08" r="44.86"/><circle class="cls-2" cx="1832.18" cy="56.08" r="56.08"/></g></svg>