<svg id="Livello_1" data-name="Livello 1" xmlns="http://www.w3.org/2000/svg" viewBox="0 0 1920 370.5"><defs><style>.cls-1{fill:#1d1d1b;}.cls-2{isolation:isolate;}.cls-3{fill:#f6f6f6;}</style></defs><g id="Livello_2" data-name="Livello 2"><rect class="cls-1" width="1920" height="370.5"/></g><g id="Livello_1-2" data-name="Livello 1"><g class="cls-2"><path class="cls-3" d="M289.86,231.91v23.82H241.64V231.91H217.82V207.8h24.4v23.82h47.35V208.37H265.46V184.55H241.64V159.87H217.82v-24.4h23.82V111.65h48.22v23.82h23.82v24.4H289.57V136.05H242.22v23.53H266V184h23.82V207.8h23.82v24.11Z"/><path class="cls-3" d="M457.47,231.91v23.82H385.72v47.93h-24.4v-192h96.15v23.82h23.82v96.44Zm-.58-95.86H385.72v95.57h71.17Z"/><path class="cls-3" d="M625.07,231.91v23.82H552.75V231.91H528.93V135.47h23.82V111.65h72.32v23.82H648.9V184H553.32v47.64H624.5V207.8h24.4v24.11Zm-.57-95.86H553.32v23.53H624.5Z"/><path class="cls-3" d="M792.68,231.91v23.82H720.36V231.91H696.54V135.47h23.82V111.65h72.32v23.82H816.5V184H720.93v47.64h71.18V207.8H816.5v24.11Zm-.57-95.86H720.93v23.53h71.18Z"/><path class="cls-3" d="M960.29,231.91v23.82H888V231.91H864.14V135.47H888V111.65h72.32v23.82h23.82v24.4H959.72V136.05H888.54v95.57h71.18V207.8h24.39v24.11Z"/><path class="cls-3" d="M1127.32,255.73V136.05h-71.17V255.73h-24.4v-192h24.4v47.93h71.75v23.82h23.82V255.73Z"/><path class="cls-3" d="M1223.18,255.73V88.12h-23.82V63.72h48.22v192Z"/><path class="cls-3" d="M1391.36,231.91v23.82H1319V231.91h-23.82V135.47H1319V111.65h72.32v23.82h23.82V184h-95.57v47.64h71.18V207.8h24.39v24.11Zm-.57-95.86h-71.18v23.53h71.18Z"/><path class="cls-3" d="M1534.86,231.91v23.82h-48.21V231.91h-23.82V207.8h24.39v23.82h47.36V208.37h-24.11V184.55h-23.82V159.87h-23.82v-24.4h23.82V111.65h48.21v23.82h23.82v24.4h-24.1V136.05h-47.36v23.53H1511V184h23.82V207.8h23.82v24.11Z"/><path class="cls-3" d="M1678.36,231.91v23.82h-48.21V231.91h-23.82V207.8h24.39v23.82h47.36V208.37H1654V184.55h-23.82V159.87h-23.82v-24.4h23.82V111.65h48.21v23.82h23.82v24.4h-24.1V136.05h-47.36v23.53h23.82V184h23.82V207.8h23.82v24.11Z"/></g></g></svg>