<svg xmlns="http://www.w3.org/2000/svg" xmlns:xlink="http://www.w3.org/1999/xlink" viewBox="0 0 1827.62 768.24"><defs><style>.cls-1{fill:#1d1d1b;}.cls-1,.cls-2{stroke:#c61257;stroke-miterlimit:10;stroke-width:6px;}.cls-2{fill:none;}</style></defs><g id="Livello_1" data-name="Livello 1"><image width="3360" height="1880" transform="translate(0 0.17) scale(0.11 0.11)" xlink:href="../../../../Downloads/screen%20ritagliati/Schermata%202022-01-26%20alle%2019.00.36.png"/><image width="3359" height="1883" transform="translate(971.56) scale(0.11 0.11)" xlink:href="../../../../Downloads/screen%20ritagliati/Schermata%202022-01-26%20alle%2019.01.02.png"/><image width="3359" height="1883" transform="translate(485.81) scale(0.11 0.11)" xlink:href="../../../../Downloads/screen%20ritagliati/Schermata%202022-01-26%20alle%2019.20.57.png"/><image width="3359" height="1869" transform="translate(1457.31 0.78) scale(0.11 0.11)" xlink:href="../../../../Downloads/screen%20ritagliati/Schermata%202022-01-26%20alle%2019.21.33.png"/><image width="3359" height="1876" transform="translate(971.56 263.53) scale(0.11 0.11)" xlink:href="../../../../Downloads/screen%20ritagliati/Schermata%202022-01-26%20alle%2019.22.42.png"/><image width="3359" height="1876" transform="translate(971.56 523) scale(0.11 0.11)" xlink:href="../../../../Downloads/screen%20ritagliati/Schermata%202022-01-26%20alle%2019.23.27.png"/></g><g id="Livello_2" data-name="Livello 2"><line class="cls-1" x1="382.47" y1="102.83" x2="473.91" y2="102.83"/><line class="cls-1" x1="872.61" y1="100.98" x2="964.05" y2="100.98"/><line class="cls-1" x1="1356.09" y1="102.83" x2="1447.53" y2="102.83"/><line class="cls-2" x1="918.33" y1="100.98" x2="918.33" y2="629.63"/><line class="cls-2" x1="948.39" y1="626.47" x2="918.33" y2="626.5"/><line class="cls-2" x1="951.99" y1="368" x2="918.33" y2="368"/><line class="cls-2" x1="1642.47" y1="231.12" x2="1642.96" y2="768.24"/><line class="cls-2" x1="185.7" y1="764.64" x2="1642.96" y2="764.64"/><line class="cls-2" x1="185.21" y1="244.08" x2="185.7" y2="767.28"/><line class="cls-2" x1="1356.09" y1="364.24" x2="1642.47" y2="364.24"/><line class="cls-2" x1="1356.09" y1="627.47" x2="1642.47" y2="627.5"/><polygon class="cls-2" points="461.17 110.53 460.28 95.13 473.91 102.84 461.17 110.53"/><polygon class="cls-2" points="951.31 108.68 950.42 93.28 964.05 100.99 951.31 108.68"/><polygon class="cls-2" points="943.03 375.7 942.15 360.3 955.77 368.01 943.03 375.7"/><polygon class="cls-2" points="939.02 634.18 938.13 618.79 951.76 626.49 939.02 634.18"/><polygon class="cls-2" points="1434.79 110.53 1433.9 95.13 1447.53 102.84 1434.79 110.53"/><polygon class="cls-2" points="193.16 253.02 177.75 253.82 185.53 240.24 193.16 253.02"/></g></svg>